<svg height="166" viewBox="0 0 250 166" width="250" xmlns="http://www.w3.org/2000/svg"><g fill="none" transform="translate(35)"><path d="m.034491 40.081498h80.77864v51.734234h-80.77864z" fill="#f2f2f2"/><path d="m2.344338 46.570262h76.158947v42.184869h-76.158947z" fill="#fff"/><path d="m0 40.035703h80.778642v3.431773h-80.778642z" fill="#6c63ff"/><circle cx="2.550218" cy="41.790208" fill="#fff" r="1"/><circle cx="4.964515" cy="41.790208" fill="#fff" r="1"/><circle cx="7.37881" cy="41.790208" fill="#fff" r="1"/><path d="m9.264423 50.947283h19.569263v33.430822h-19.569263z" fill="#f2f2f2"/><path d="m32.21171 50.947283h16.307719v9.202213h-16.307719z" fill="#6c63ff"/><g fill="#f2f2f2"><path d="m32.21171 62.712138h16.307719v9.901114h-16.307719z"/><path d="m32.21171 75.175894h16.307719v9.202213h-16.307719z"/><path d="m52.01394 50.947283h19.569263v14.56897h-19.569263z"/><path d="m52.01394 69.809137h19.569263v14.56897h-19.569263z"/><path d="m101.178621 40.081498h80.77864v51.734234h-80.77864z"/></g><path d="m103.488468 46.570262h76.158947v42.184869h-76.158947z" fill="#fff"/><path d="m101.14413 40.035703h80.778642v3.431773h-80.778642z" fill="#6c63ff"/><circle cx="103.694349" cy="41.790208" fill="#fff" r="1"/><circle cx="106.108646" cy="41.790208" fill="#fff" r="1"/><circle cx="108.52294" cy="41.790208" fill="#fff" r="1"/><path d="m153.140359 50.947285h19.569263v33.430822h-19.569263z" fill="#f2f2f2"/><path d="m110.4262 50.9467h39.471899v9.202213h-39.471899z" fill="#6c63ff"/><path d="m110.4262 62.711553h39.471899v9.901114h-39.471899z" fill="#f2f2f2"/><path d="m110.4262 75.17531h39.471899v9.202213h-39.471899z" fill="#f2f2f2"/><path d="m90.069625 0h1v24.669139h-1z" fill="#ccc"/><path d="m135.674691 40.0214681h-.451536v-15.1264659h-89.8557229v15.1264659h-.4515363v-15.5780022h90.7587952z" fill="#ccc"/><path d="m93.617578 68.9648657-.3399775-1.6998874s-5.0006132-1.6998874-5.5601028 1.6998874z" fill="#e6e6e6"/><path d="m84.0205194 162.563452-3.2783792-.000226-1.5596064-12.645048 4.8384372.000226z" fill="#ffb8b8"/><path d="m84.8565118 165.741263-10.5707717-.000397v-.133705c.000162-2.272265 1.8421788-4.114247 4.1144438-4.114367h.0002619l6.4562669.000262z" fill="#2f2e41"/><path d="m95.2910912 162.563452 3.2783793-.000226 1.5596065-12.645048-4.8384374.000226z" fill="#ffb8b8"/><path d="m94.4549069 161.493056 6.4562691-.000262h.00026c2.272266.000122 4.114281 1.842108 4.114439 4.114374v.133704l-10.5707717.000391z" fill="#2f2e41"/><path d="m98.3773418 76.1044109 3.7396232-.3400069 2.379822 11.2193224-.340006 10.1993019-3.739624 13.5991447-5.099651-3.059836 2.7198289-13.9391513z" fill="#2f2e41"/><path d="m100.744295 109.592149-.8371483 7.139466 1.0200203 16.65898v24.825014l-6.459678-.346554-1.3598016-25.838487-3.7398494-11.899111-2.7198288 13.599145-1.6998084 25.498255-6.6296817-.531459v-25.056426l-.1700034-18.269159 2.379822-7.139466z" fill="#2f2e41"/><path d="m86.8180306 69.3048432s2.3798401-3.3997748 6.7995474-1.0199325l2.0398649 2.7198289 6.4595701 4.7596825-1.359912 15.9789281 1.699887 20.0586648-24.1383944-.339978 4.0797275-20.0586643v-21.4185746z" fill="#2f2e41"/><path d="m99.9071467 81.4074789 1.9492823 23.3078521-2.4592925-12.6319537z" fill="#000" opacity=".25"/><path d="m82.1753818 116.136352c.4763374-.569008.676173-1.319779.5457345-2.050295-.1304384-.730516-.5777517-1.365734-1.2215759-1.73473l.7268086-5.683698-3.3462429-1.284094-.9136611 8.040897c-.5605125 1.14787-.1738988 2.533559.8999139 3.225444s2.495408.471272 3.3090229-.513517z" fill="#ffb8b8"/><path d="m77.978618 108.062263h5.439637v2.379842h-5.439637z" fill="#e6e6e6" transform="matrix(-1 0 0 -1 161.396874 218.504368)"/><path d="m85.9680971 72.8746056-3.5697737-2.8898075s-2.5498255-.1699898-2.8898075 3.5697625-.7535712 19.7186871-.7535712 19.7186871l-1.2862801 15.9789373 7.1395248.339977 1.3599077-17.2946752z" fill="#2f2e41"/><circle cx="90.601507" cy="58.550782" fill="#ffb8b8" r="6.827041" transform="matrix(.47965987 -.8774545 .8774545 .47965987 -4.232048 109.965022)"/><path d="m90.0915469 64.573086c3.4602861.8307383 6.9869463-1.096354 8.1568162-4.4571739 1.1698699-3.36082-.3979068-7.0612379-3.6261123-8.5587008-1.1999849-.5355683-2.5122785-.7710652-3.8236094-.6861636-2.0417839.1073482-4.0262746.8619828-6.0701221.8063851l-.2962394.4761789-1.1164528-.2707637-.2392353.8863838-.2940765-.0101799c-.5267781.9789307.3207804 2.3804587 1.4323883 2.3685969.4401034-.004696.8562369-.1880514 1.2865962-.2802686.4303592-.0922173.9371636-.0692318 1.23392.2557953.3856684.4224122.2177805 1.0815671.1373664 1.6478682-.0804141.566301.1204292 1.3290971.6921126 1.3475762.2920311.0094439.5697755-.1999787.8567269-.1449183.3342271.0641339.5032191.4677216.4544216.8045293-.0827741.3304791-.2177689.6456275-.3998896.9335513-.8287226 1.6542777-.1289565 3.9045811 1.491754 4.797169" fill="#2f2e41"/><path d="m133.304225 166h-86.0176643c-.1246883 0-.2257682-.10108-.2257682-.225768s.1010799-.225768.2257682-.225768h86.0176643c.124688 0 .225768.10108.225768.225768s-.10108.225768-.225768.225768z" fill="#ccc"/></g></svg>